<svg xmlns="http://www.w3.org/2000/svg" viewBox="0 0 640 170" font-family="-apple-system,Segoe UI,Roboto,sans-serif">
  <rect x="10" y="55" width="620" height="50" rx="25" fill="#1c1c1e" stroke="#3a3a3c"/>
  <!-- zone brackets -->
  <g font-size="12" fill="#98989d" text-anchor="middle">
    <text x="115" y="22" fill="#ff453a" font-weight="600">Network &amp; servers</text>
    <text x="115" y="38">LED 0–9</text>
    <text x="320" y="22" fill="#ff9f0a" font-weight="600">Chores &amp; to-dos</text>
    <text x="320" y="38">LED 10–19</text>
    <text x="525" y="22" fill="#0a84ff" font-weight="600">3D printer</text>
    <text x="525" y="38">LED 20–29</text>
  </g>
  <g stroke="#48484a"><line x1="218" y1="55" x2="218" y2="105"/><line x1="422" y1="55" x2="422" y2="105"/></g>
  <!-- leds -->
  <g>
    <circle cx="35" cy="80" r="8" fill="#ff453a"/>
    <circle cx="55" cy="80" r="8" fill="#48484a"/>
    <circle cx="75" cy="80" r="8" fill="#48484a"/>
    <circle cx="95" cy="80" r="8" fill="#ff453a"/>
    <circle cx="115" cy="80" r="8" fill="#48484a"/>
    <circle cx="135" cy="80" r="8" fill="#48484a"/>
    <circle cx="155" cy="80" r="8" fill="#48484a"/>
    <circle cx="175" cy="80" r="8" fill="#48484a"/>
    <circle cx="195" cy="80" r="8" fill="#48484a"/>
    <circle cx="240" cy="80" r="8" fill="#ff9f0a"/>
    <circle cx="260" cy="80" r="8" fill="#ff9f0a"/>
    <circle cx="280" cy="80" r="8" fill="#ff9f0a"/>
    <circle cx="300" cy="80" r="8" fill="#48484a"/>
    <circle cx="320" cy="80" r="8" fill="#48484a"/>
    <circle cx="340" cy="80" r="8" fill="#48484a"/>
    <circle cx="360" cy="80" r="8" fill="#48484a"/>
    <circle cx="380" cy="80" r="8" fill="#48484a"/>
    <circle cx="400" cy="80" r="8" fill="#48484a"/>
    <circle cx="445" cy="80" r="8" fill="#0a84ff"/>
    <circle cx="465" cy="80" r="8" fill="#0a84ff"/>
    <circle cx="485" cy="80" r="8" fill="#0a84ff"/>
    <circle cx="505" cy="80" r="8" fill="#0a84ff"/>
    <circle cx="525" cy="80" r="8" fill="#0a84ff"/>
    <circle cx="545" cy="80" r="8" fill="#48484a"/>
    <circle cx="565" cy="80" r="8" fill="#48484a"/>
    <circle cx="585" cy="80" r="8" fill="#48484a"/>
    <circle cx="605" cy="80" r="8" fill="#48484a"/>
  </g>
  <g font-size="11" fill="#98989d" text-anchor="middle">
    <text x="115" y="135">NAS down · server unavailable</text>
    <text x="320" y="135">3 items on the shopping list</text>
    <text x="525" y="135">print 55% done (fill bar)</text>
  </g>
</svg>
